<svg id="Layer_1" data-name="Layer 1" xmlns="http://www.w3.org/2000/svg" viewBox="0 0 580.45 188.48"><defs><style>.cls-1{fill:#fddf01;}.cls-2{fill:#231f20;}</style></defs><path d="M19.89,46.94h21v97.12h-21Zm.19-36.51h21V33.75h-21Z"/><path d="M105,144.06c-.77-1.15-1.53-6.69-1.72-14.34C99.6,139.86,91.38,146,79.34,146c-14.72,0-24.09-9.56-24.09-25,0-14.91,6.5-24.47,26.19-31.35,17-5.93,19.5-8,19.5-14v-1c0-8.22-3.44-12-10.89-12-8.22,0-11.86,4.78-11.86,13v1.72H58.69V76.19C58.69,56.5,69.78,45,90.24,45c22.75,0,31.54,11.86,31.54,33.84v36.9c0,14,1,22.75,2.49,28.29Zm-4-34.41V96.46c-2.1,2.1-6.11,4-13.19,6.88-8.41,3.44-11.66,8-11.66,14.34,0,6.88,3.44,10.7,10.51,10.7C95,128.38,100.94,122.46,100.94,109.65Z"/><path d="M206.28,75.24v68.82H185.44V78.3c0-10.33-3.25-14.91-11.09-14.91-8.22,0-13.19,5.54-13.19,18.35v62.32h-21V46.94h18.35l.2,14.34C162.5,51,170.72,45,182,45,197.68,45,206.28,54.78,206.28,75.24Z"/><path d="M290.39,75.24v68.82H269.55V78.3c0-10.33-3.25-14.91-11.08-14.91-8.22,0-13.2,5.54-13.2,18.35v62.32h-21V46.94H242.6l.19,14.34C246.61,51,254.83,45,266.11,45,281.79,45,290.39,54.78,290.39,75.24Z"/><path d="M295.55,173.5V156.11a20.11,20.11,0,0,0,6.88,1.14c4.21,0,5.93-1.91,5.93-6.5V46.94h21V152.28c0,15.68-7.46,23.33-22.56,23.33A26.39,26.39,0,0,1,295.55,173.5Zm13-163.07h21V33.75h-21Z"/><path d="M345.83,112.33V78.68c0-21.6,12-33.65,33.26-33.65,21.41,0,33.46,12,33.46,33.65v33.65c0,21.41-12.05,33.64-33.46,33.64C357.87,146,345.83,133.74,345.83,112.33Zm45.69,1.72V77c0-8.22-3.82-13.57-12.43-13.57S366.86,68.74,366.86,77v37.09c0,8.22,3.82,13.57,12.23,13.57C387.7,127.62,391.52,122.27,391.52,114.05Z"/><path d="M493.8,78.68v21.41H447.72v14.34c0,9.18,4.4,13.57,13,13.57s13-4.39,13-13.76v-1.91H493.8v1c0,20.46-12.05,32.69-33.46,32.69-21.79,0-33.65-12.23-33.65-33.64V78.68c0-21.6,11.86-33.65,33.65-33.65C481.94,45,493.8,57.08,493.8,78.68Zm-20.46,5.54V76.39c0-9.18-4.59-13.58-12.81-13.58s-12.81,4.4-12.81,13.58v7.83Z"/><path d="M509.85,10.24h21V144.06h-21Z"/><path d="M439.84,136.94l1,5.81c.48,3-.56,4.59-2.82,5a3.47,3.47,0,0,1-3.81-1.89l-.12,2.25-2.2.36-3.16-19.29,3-.49,1.09,6.67a3.46,3.46,0,0,1,2.79-2.16C437.86,132.79,439.36,134,439.84,136.94Zm-3,.88c-.23-1.38-.76-2-1.94-1.83s-1.83,1.14-1.53,3l.65,4c.3,1.82,1.21,2.52,2.39,2.33s1.48-1,1.26-2.36Z"/><path d="M451,130.92l-1.18,15.79c-.22,2.46-1.27,3.66-3.64,4a4.18,4.18,0,0,1-1.87,0l-.42-2.56a3.86,3.86,0,0,0,1.44,0,1.53,1.53,0,0,0,1.5-1.54l0-.26-6.24-13.75,3.09-.5,4,9.34.44-10.07Z"/><path d="M456.73,124.59l3-.5.55,3.36-3,.5Zm.83,5.26,3-.49,2.29,14-3,.49Z"/><path d="M472.11,141.85a7.22,7.22,0,0,1-.58-2,3.47,3.47,0,0,1-3.06,2.91,3.35,3.35,0,0,1-4.07-3c-.35-2.14.36-3.68,3-5.13,2.31-1.26,2.62-1.62,2.48-2.47l0-.14c-.19-1.19-.78-1.66-1.86-1.48s-1.59,1-1.4,2.15l0,.25-2.81.46,0-.17c-.47-2.83.86-4.75,3.81-5.23,3.28-.54,4.82,1,5.34,4.13l.87,5.32a16.66,16.66,0,0,0,1,4ZM470.72,137l-.31-1.9a6.2,6.2,0,0,1-1.74,1.3c-1.13.7-1.49,1.43-1.34,2.34a1.38,1.38,0,0,0,1.77,1.3C470.31,139.82,471,138.83,470.72,137Z"/><path d="M485.1,129.54l1.62,9.92-3,.49-1.55-9.48c-.25-1.49-.82-2.07-1.95-1.89s-1.77,1.11-1.47,3l1.47,9-3,.5-2.29-14,2.64-.44.37,2.07a3.45,3.45,0,0,1,3-2.9C483.15,125.38,484.62,126.59,485.1,129.54Z"/><path d="M497.23,127.55l1.62,9.92-3,.49-1.55-9.47c-.24-1.49-.82-2.08-2-1.89s-1.77,1.11-1.47,3l1.47,9-3,.49L487,125l2.65-.43.36,2.06a3.46,3.46,0,0,1,3-2.89C495.27,123.4,496.74,124.6,497.23,127.55Z"/><path d="M498.31,117.78l3-.49.55,3.36-3,.49Zm2,23.81-.41-2.5a2.91,2.91,0,0,0,1,0c.6-.1.81-.41.7-1.08l-2.45-15,3-.5,2.48,15.19c.37,2.26-.52,3.54-2.7,3.89A3.73,3.73,0,0,1,500.29,141.59Z"/><path d="M506.09,131.59l-.79-4.85c-.51-3.11.94-5.13,4-5.63s5.11.94,5.62,4.06l.79,4.85c.5,3.08-.94,5.13-4,5.64S506.6,134.68,506.09,131.59Zm6.63-.83-.87-5.34c-.2-1.19-.88-1.87-2.12-1.67s-1.63,1.06-1.44,2.25l.87,5.34c.2,1.19.88,1.87,2.09,1.67S512.91,132,512.72,130.76Z"/><path d="M526.63,123.25l.5,3.09-6.64,1.08.34,2.07a1.72,1.72,0,0,0,2.19,1.65c1.25-.2,1.78-.94,1.55-2.29l0-.28,2.89-.47,0,.14c.48,2.95-1,5-4.06,5.5s-5.13-1-5.64-4.06l-.79-4.85c-.51-3.11.91-5.13,4-5.64S526.12,120.14,526.63,123.25Zm-2.82,1.28-.18-1.13a1.88,1.88,0,1,0-3.7.61l.19,1.13Z"/><path d="M527.33,113l3-.5,3.16,19.29-3,.5Z"/><rect class="cls-1" x="401.75" y="112.78" width="160.8" height="37.22" rx="18.61" transform="translate(-14.89 79.56) rotate(-9.29)"/><path class="cls-2" d="M421.16,161.62a20.26,20.26,0,0,1-3.26-40.25l122-20a20.26,20.26,0,1,1,6.54,40l-122,19.95A20.34,20.34,0,0,1,421.16,161.62Zm122-57.18a17,17,0,0,0-2.74.23l-122,20a17,17,0,1,0,5.47,33.48l122-19.95a17,17,0,0,0-2.73-33.71Z"/><path d="M440.51,137.35l1,5.9c.49,3-.56,4.66-2.85,5a3.56,3.56,0,0,1-3.88-1.93l-.11,2.29-2.24.37-3.2-19.58,3.08-.5,1.1,6.77a3.52,3.52,0,0,1,2.83-2.19C438.51,133.15,440,134.36,440.51,137.35Zm-3,.9c-.23-1.4-.76-2.06-2-1.86s-1.84,1.16-1.54,3l.66,4c.3,1.85,1.22,2.56,2.42,2.36s1.5-1,1.27-2.39Z"/><path d="M451.86,131.25l-1.2,16c-.22,2.51-1.29,3.72-3.69,4.11a4.31,4.31,0,0,1-1.9,0l-.43-2.6a4.25,4.25,0,0,0,1.47,0,1.57,1.57,0,0,0,1.52-1.58l0-.26L441.32,133l3.13-.51,4,9.48.45-10.21Z"/><path d="M457.64,124.82l3.08-.51.55,3.42-3.07.5Zm.85,5.34,3.07-.5,2.33,14.21-3.08.5Z"/><path d="M473.25,142.33a7.2,7.2,0,0,1-.59-2.05,3.52,3.52,0,0,1-3.11,2.95,3.39,3.39,0,0,1-4.12-3.09c-.36-2.18.37-3.74,3.08-5.21,2.35-1.28,2.66-1.64,2.52-2.51l0-.14c-.2-1.2-.79-1.68-1.89-1.5s-1.61,1-1.42,2.18l0,.26-2.85.46,0-.17c-.47-2.88.88-4.82,3.87-5.31,3.33-.54,4.9,1,5.42,4.2l.89,5.39a16.49,16.49,0,0,0,1,4.08Zm-1.41-4.93-.31-1.93a6.43,6.43,0,0,1-1.77,1.32c-1.14.7-1.51,1.45-1.36,2.37a1.4,1.4,0,0,0,1.79,1.32C471.42,140.28,472.15,139.27,471.84,137.4Z"/><path d="M486.43,129.84l1.64,10.07-3,.5-1.58-9.62c-.24-1.51-.83-2.1-2-1.92s-1.79,1.13-1.49,3l1.5,9.12-3.08.5-2.33-14.2,2.69-.44.37,2.09a3.5,3.5,0,0,1,3-2.94C484.45,125.63,485.94,126.85,486.43,129.84Z"/><path d="M498.73,127.83l1.65,10.07-3.05.5-1.57-9.62c-.25-1.51-.84-2.11-2-1.92s-1.8,1.13-1.49,3l1.49,9.12-3.08.5-2.32-14.21,2.68-.44.37,2.1a3.5,3.5,0,0,1,3-2.94C496.75,123.62,498.24,124.84,498.73,127.83Z"/><path d="M499.83,117.92l3.08-.51.56,3.41-3.08.51Zm2,24.16-.41-2.54a3,3,0,0,0,1,0c.62-.1.82-.42.71-1.09l-2.48-15.19,3.08-.5,2.52,15.41c.37,2.29-.54,3.59-2.74,4A3.91,3.91,0,0,1,501.83,142.08Z"/><path d="M507.72,131.93l-.8-4.92c-.52-3.16,1-5.21,4.06-5.72s5.18,1,5.7,4.12l.8,4.92c.52,3.13-1,5.21-4.08,5.72S508.24,135.06,507.72,131.93Zm6.73-.84-.89-5.43a1.74,1.74,0,0,0-2.14-1.69c-1.26.21-1.66,1.08-1.46,2.28l.88,5.43c.2,1.2.89,1.89,2.12,1.69A1.73,1.73,0,0,0,514.45,131.09Z"/><path d="M528.56,123.47l.51,3.13-6.73,1.1.34,2.1a1.74,1.74,0,0,0,2.23,1.67c1.25-.2,1.79-.95,1.57-2.32l-.05-.28,2.94-.48,0,.14c.49,3-1,5.07-4.11,5.58s-5.22-1-5.73-4.12l-.8-4.92c-.52-3.16.93-5.2,4.11-5.72S528.05,120.31,528.56,123.47Zm-2.86,1.3-.18-1.15a1.9,1.9,0,1,0-3.75.61l.19,1.15Z"/><path d="M529.27,113.07l3.08-.5,3.2,19.57-3.07.51Z"/></svg>