<svg xmlns="http://www.w3.org/2000/svg" viewBox="0 0 743.32 196.6"><defs><style>.cls-1{fill:#fddf01;}.cls-2{fill:#231f20;}.cls-3{fill:#fc198e;}.cls-4{fill:#fd6519;}.cls-5{fill:#fff;}.cls-6{fill:#ba0dfe;}.cls-7{fill:#124ab0;}</style></defs><g id="main_text" data-name="main text"><path d="M469.07,94H489.8v95.74H469.07Zm.19-36H490V81H469.26Z" transform="translate(-347.99 -32.32)"/><path d="M552.94,189.72c-.75-1.13-1.51-6.59-1.7-14.13-3.58,10-11.68,16-23.56,16-14.51,0-23.74-9.43-23.74-24.69,0-14.7,6.4-24.13,25.82-30.91,16.77-5.84,19.22-7.92,19.22-13.76v-.94c0-8.11-3.39-11.88-10.74-11.88-8.11,0-11.69,4.71-11.69,12.82V124H507.33v-1.14c0-19.41,10.93-30.72,31.1-30.72,22.43,0,31.1,11.69,31.1,33.36v36.38c0,13.76.94,22.43,2.45,27.89Zm-4-33.92v-13c-2.07,2.08-6,4-13,6.79-8.3,3.39-11.5,7.91-11.5,14.13,0,6.79,3.39,10.56,10.37,10.56C543.14,174.27,549,168.43,549,155.8Z" transform="translate(-347.99 -32.32)"/><path d="M652.83,121.87v67.85H632.29V124.89c0-10.18-3.21-14.7-10.93-14.7-8.11,0-13,5.46-13,18.09v61.44H587.62V94h18.09l.19,14.13c3.77-10.17,11.87-16,23-16C644.35,92.09,652.83,101.71,652.83,121.87Z" transform="translate(-347.99 -32.32)"/><path d="M735.76,121.87v67.85H715.21V124.89c0-10.18-3.2-14.7-10.93-14.7-8.1,0-13,5.46-13,18.09v61.44H670.55V94h18.09l.19,14.13c3.77-10.17,11.87-16,23-16C727.28,92.09,735.76,101.71,735.76,121.87Z" transform="translate(-347.99 -32.32)"/><path d="M740.84,218.75V201.6a19.86,19.86,0,0,0,6.79,1.13c4.15,0,5.84-1.89,5.84-6.41V94h20.74V197.83c0,15.45-7.36,23-22.25,23A26,26,0,0,1,740.84,218.75ZM753.66,58h20.73V81H753.66Z" transform="translate(-347.99 -32.32)"/><path d="M790.41,158.44V125.26c0-21.29,11.88-33.17,32.8-33.17,21.11,0,33,11.88,33,33.17v33.18c0,21.11-11.87,33.17-33,33.17C802.29,191.61,790.41,179.55,790.41,158.44Zm45.05,1.69V123.57c0-8.11-3.77-13.38-12.25-13.38s-12.06,5.27-12.06,13.38v36.56c0,8.11,3.77,13.38,12.06,13.38C831.69,173.51,835.46,168.24,835.46,160.13Z" transform="translate(-347.99 -32.32)"/><path d="M936.29,125.26v21.11H890.87v14.14c0,9.05,4.33,13.38,12.82,13.38s12.81-4.33,12.81-13.57v-1.88h19.79v.94c0,20.17-11.87,32.23-33,32.23-21.49,0-33.17-12.06-33.17-33.17V125.26c0-21.29,11.68-33.17,33.17-33.17C924.61,92.09,936.29,104,936.29,125.26Zm-20.17,5.47V123c0-9-4.52-13.38-12.62-13.38S890.87,114,890.87,123v7.73Z" transform="translate(-347.99 -32.32)"/><path d="M952.12,57.79h20.73V189.72H952.12Z" transform="translate(-347.99 -32.32)"/><rect class="cls-1" x="845.55" y="158.88" width="158.53" height="36.69" rx="18.35" transform="translate(-364.47 119.31) rotate(-9.29)"/><path class="cls-2" d="M864.69,207a20,20,0,0,1-3.22-39.67l120.24-19.68a20,20,0,0,1,6.45,39.42L867.92,206.77A20.88,20.88,0,0,1,864.69,207Zm120.25-56.37a16.59,16.59,0,0,0-2.7.23L862,170.56a16.72,16.72,0,1,0,5.4,33L987.64,183.9a16.73,16.73,0,0,0-2.7-33.24Z" transform="translate(-347.99 -32.32)"/><path class="cls-3" d="M883.76,183.11l1,5.82c.48,3-.55,4.59-2.82,5a3.5,3.5,0,0,1-3.82-1.9l-.11,2.26-2.2.36-3.16-19.3,3-.5,1.09,6.67a3.48,3.48,0,0,1,2.79-2.15C881.78,179,883.28,180.16,883.76,183.11Zm-3,.88c-.22-1.38-.75-2-1.94-1.83s-1.82,1.14-1.52,3l.65,4c.3,1.82,1.2,2.53,2.39,2.33s1.48-1,1.25-2.36Z" transform="translate(-347.99 -32.32)"/><path class="cls-3" d="M895,177.09l-1.18,15.79c-.22,2.47-1.27,3.66-3.64,4.05a4.38,4.38,0,0,1-1.88,0l-.42-2.57a3.71,3.71,0,0,0,1.45,0,1.55,1.55,0,0,0,1.5-1.55l0-.26-6.24-13.75,3.08-.51,4,9.35.45-10.07Z" transform="translate(-347.99 -32.32)"/><path class="cls-3" d="M900.65,170.75l3-.5.55,3.37-3,.49Zm.83,5.27,3-.5,2.29,14-3,.5Z" transform="translate(-347.99 -32.32)"/><path class="cls-3" d="M916,188a6.87,6.87,0,0,1-.58-2,3.47,3.47,0,0,1-3.07,2.91,3.33,3.33,0,0,1-4.06-3c-.35-2.15.36-3.69,3-5.14,2.31-1.26,2.62-1.62,2.48-2.48l0-.13c-.2-1.19-.78-1.66-1.86-1.49s-1.6,1-1.4,2.16l0,.25-2.81.46,0-.17c-.47-2.84.86-4.75,3.81-5.24,3.28-.53,4.83,1,5.35,4.14l.87,5.32a16.66,16.66,0,0,0,1,4Zm-1.39-4.87-.31-1.9a6.36,6.36,0,0,1-1.74,1.3c-1.13.7-1.49,1.44-1.34,2.35a1.37,1.37,0,0,0,1.77,1.29C914.24,186,915,185,914.65,183.15Z" transform="translate(-347.99 -32.32)"/><path class="cls-3" d="M929,175.7l1.62,9.93-3,.49-1.55-9.48c-.25-1.49-.82-2.08-2-1.89s-1.78,1.11-1.47,3l1.47,9-3,.5-2.29-14,2.65-.43.36,2.06a3.45,3.45,0,0,1,3-2.89C927.08,171.55,928.55,172.75,929,175.7Z" transform="translate(-347.99 -32.32)"/><path class="cls-3" d="M941.16,173.72l1.62,9.93-3,.49-1.55-9.49c-.25-1.49-.82-2.07-2-1.89s-1.77,1.11-1.46,3l1.47,9-3,.5-2.29-14,2.65-.43.36,2.06a3.44,3.44,0,0,1,3-2.89C939.21,169.57,940.68,170.77,941.16,173.72Z" transform="translate(-347.99 -32.32)"/><path class="cls-3" d="M942.25,163.94l3-.49.55,3.36-3,.5Zm2,23.83-.41-2.51a2.91,2.91,0,0,0,1,0c.61-.09.81-.41.7-1.07l-2.45-15,3-.49,2.49,15.19c.37,2.26-.53,3.54-2.7,3.9A3.92,3.92,0,0,1,944.22,187.77Z" transform="translate(-347.99 -32.32)"/><path class="cls-3" d="M950,177.76l-.8-4.85c-.51-3.12.95-5.14,4-5.64s5.1.95,5.61,4.06l.8,4.86c.5,3.08-.94,5.13-4,5.64S950.53,180.85,950,177.76Zm6.63-.83-.88-5.35c-.19-1.18-.87-1.87-2.11-1.66s-1.64,1.06-1.45,2.24l.88,5.35c.19,1.19.87,1.87,2.08,1.67A1.72,1.72,0,0,0,956.66,176.93Z" transform="translate(-347.99 -32.32)"/><path class="cls-3" d="M970.57,169.42l.51,3.09-6.65,1.08.34,2.07a1.71,1.71,0,0,0,2.19,1.65c1.25-.2,1.78-.94,1.55-2.29l0-.28,2.9-.47,0,.14c.48,3-1,5-4.06,5.5s-5.14-1-5.64-4.06l-.8-4.85c-.51-3.12.92-5.13,4.06-5.65S970.06,166.3,970.57,169.42Zm-2.82,1.28-.18-1.13a1.88,1.88,0,1,0-3.7.6l.19,1.13Z" transform="translate(-347.99 -32.32)"/><path class="cls-3" d="M971.27,159.17l3-.5,3.16,19.3-3,.5Z" transform="translate(-347.99 -32.32)"/><path class="cls-2" d="M883.76,183.11l1,5.82c.48,3-.55,4.59-2.82,5a3.5,3.5,0,0,1-3.82-1.9l-.11,2.26-2.2.36-3.16-19.3,3-.5,1.09,6.67a3.48,3.48,0,0,1,2.79-2.15C881.78,179,883.28,180.16,883.76,183.11Zm-3,.88c-.22-1.38-.75-2-1.94-1.83s-1.82,1.14-1.52,3l.65,4c.3,1.82,1.2,2.53,2.39,2.33s1.48-1,1.25-2.36Z" transform="translate(-347.99 -32.32)"/><path class="cls-2" d="M895,177.09l-1.18,15.79c-.22,2.47-1.27,3.66-3.64,4.05a4.38,4.38,0,0,1-1.88,0l-.42-2.57a3.71,3.71,0,0,0,1.45,0,1.55,1.55,0,0,0,1.5-1.55l0-.26-6.24-13.75,3.08-.51,4,9.35.45-10.07Z" transform="translate(-347.99 -32.32)"/><path class="cls-2" d="M900.65,170.75l3-.5.55,3.37-3,.49Zm.83,5.27,3-.5,2.29,14-3,.5Z" transform="translate(-347.99 -32.32)"/><path class="cls-2" d="M916,188a6.87,6.87,0,0,1-.58-2,3.47,3.47,0,0,1-3.07,2.91,3.33,3.33,0,0,1-4.06-3c-.35-2.15.36-3.69,3-5.14,2.31-1.26,2.62-1.62,2.48-2.48l0-.13c-.2-1.19-.78-1.66-1.86-1.49s-1.6,1-1.4,2.16l0,.25-2.81.46,0-.17c-.47-2.84.86-4.75,3.81-5.24,3.28-.53,4.83,1,5.35,4.14l.87,5.32a16.66,16.66,0,0,0,1,4Zm-1.39-4.87-.31-1.9a6.36,6.36,0,0,1-1.74,1.3c-1.13.7-1.49,1.44-1.34,2.35a1.37,1.37,0,0,0,1.77,1.29C914.24,186,915,185,914.65,183.15Z" transform="translate(-347.99 -32.32)"/><path class="cls-2" d="M929,175.7l1.62,9.93-3,.49-1.55-9.48c-.25-1.49-.82-2.08-2-1.89s-1.78,1.11-1.47,3l1.47,9-3,.5-2.29-14,2.65-.43.36,2.06a3.45,3.45,0,0,1,3-2.89C927.08,171.55,928.55,172.75,929,175.7Z" transform="translate(-347.99 -32.32)"/><path class="cls-2" d="M941.16,173.72l1.62,9.93-3,.49-1.55-9.49c-.25-1.49-.82-2.07-2-1.89s-1.77,1.11-1.46,3l1.47,9-3,.5-2.29-14,2.65-.43.36,2.06a3.44,3.44,0,0,1,3-2.89C939.21,169.57,940.68,170.77,941.16,173.72Z" transform="translate(-347.99 -32.32)"/><path class="cls-2" d="M942.25,163.94l3-.49.55,3.36-3,.5Zm2,23.83-.41-2.51a2.91,2.91,0,0,0,1,0c.61-.09.81-.41.7-1.07l-2.45-15,3-.49,2.49,15.19c.37,2.26-.53,3.54-2.7,3.9A3.92,3.92,0,0,1,944.22,187.77Z" transform="translate(-347.99 -32.32)"/><path class="cls-2" d="M950,177.76l-.8-4.85c-.51-3.12.95-5.14,4-5.64s5.1.95,5.61,4.06l.8,4.86c.5,3.08-.94,5.13-4,5.64S950.53,180.85,950,177.76Zm6.63-.83-.88-5.35c-.19-1.18-.87-1.87-2.11-1.66s-1.64,1.06-1.45,2.24l.88,5.35c.19,1.19.87,1.87,2.08,1.67A1.72,1.72,0,0,0,956.66,176.93Z" transform="translate(-347.99 -32.32)"/><path class="cls-2" d="M970.57,169.42l.51,3.09-6.65,1.08.34,2.07a1.71,1.71,0,0,0,2.19,1.65c1.25-.2,1.78-.94,1.55-2.29l0-.28,2.9-.47,0,.14c.48,3-1,5-4.06,5.5s-5.14-1-5.64-4.06l-.8-4.85c-.51-3.12.92-5.13,4.06-5.65S970.06,166.3,970.57,169.42Zm-2.82,1.28-.18-1.13a1.88,1.88,0,1,0-3.7.6l.19,1.13Z" transform="translate(-347.99 -32.32)"/><path class="cls-2" d="M971.27,159.17l3-.5,3.16,19.3-3,.5Z" transform="translate(-347.99 -32.32)"/></g><g id="BRANDED"><path d="M657,228.92H593.48a15.14,15.14,0,1,1,0-30.28H643.2v-13.5l10.41,13.5H657a15.14,15.14,0,0,1,0,30.28Z" transform="translate(-347.99 -32.32)"/><path class="cls-4" d="M657,228.92H593.48a15.14,15.14,0,1,1,0-30.28H643.2v-13.5l10.41,13.5H657a15.14,15.14,0,0,1,0,30.28Z" transform="translate(-347.99 -32.32)"/><path class="cls-5" d="M602.53,212.71v4.75c0,2.44-1,3.59-2.89,3.59a2.81,2.81,0,0,1-2.79-2l-.39,1.78h-1.8V205h2.48v5.46a2.8,2.8,0,0,1,2.5-1.35C601.49,209.15,602.53,210.3,602.53,212.71Zm-2.48.31c0-1.12-.34-1.71-1.31-1.71s-1.6.68-1.6,2.16v3.25c0,1.49.63,2.16,1.6,2.16s1.31-.61,1.31-1.71Z" transform="translate(-347.99 -32.32)"/><path class="cls-5" d="M610.08,209.28v2.39a3.68,3.68,0,0,0-.7-.07c-1.56,0-2.37,1-2.37,3v6.26h-2.48V209.37h2.15l0,2.12c.38-1.58,1.26-2.34,2.59-2.34A1.75,1.75,0,0,1,610.08,209.28Z" transform="translate(-347.99 -32.32)"/><path class="cls-5" d="M616.75,220.82a5.4,5.4,0,0,1-.2-1.69,2.79,2.79,0,0,1-2.82,1.92,2.7,2.7,0,0,1-2.84-3c0-1.75.77-2.88,3.09-3.69,2-.7,2.3-1,2.3-1.65v-.11c0-1-.41-1.42-1.29-1.42s-1.39.56-1.39,1.53V213h-2.3v-.14c0-2.32,1.3-3.67,3.72-3.67,2.68,0,3.71,1.39,3.71,4v4.35a13.3,13.3,0,0,0,.3,3.33Zm-.47-4.06v-1.55a5.09,5.09,0,0,1-1.56.81c-1,.41-1.37.95-1.37,1.69a1.11,1.11,0,0,0,1.24,1.26C615.58,219,616.28,218.27,616.28,216.76Z" transform="translate(-347.99 -32.32)"/><path class="cls-5" d="M628.7,212.71v8.11h-2.46v-7.75c0-1.22-.38-1.76-1.31-1.76s-1.55.65-1.55,2.16v7.35H620.9V209.37h2.16l0,1.69a2.78,2.78,0,0,1,2.75-1.91C627.68,209.15,628.7,210.3,628.7,212.71Z" transform="translate(-347.99 -32.32)"/><path class="cls-5" d="M636.52,220.82a4.61,4.61,0,0,1-.23-1.67,2.81,2.81,0,0,1-2.77,1.9c-1.85,0-2.91-1.15-2.91-3.59v-4.75c0-2.41,1.06-3.56,2.91-3.56a2.81,2.81,0,0,1,2.48,1.3V205h2.48v12.45a13,13,0,0,0,.32,3.33Zm-.52-4.1v-3.25c0-1.48-.61-2.16-1.58-2.16s-1.33.59-1.33,1.71v4.15c0,1.1.36,1.71,1.33,1.71S636,218.21,636,216.72Z" transform="translate(-347.99 -32.32)"/><path class="cls-5" d="M648.35,213.11v2.53h-5.43v1.69c0,1.08.52,1.6,1.54,1.6s1.53-.52,1.53-1.62v-.23h2.36v.11c0,2.41-1.42,3.86-3.94,3.86a3.59,3.59,0,0,1-4-4v-4c0-2.54,1.4-4,4-4S648.35,210.57,648.35,213.11Zm-2.41.66v-.93c0-1.08-.54-1.6-1.51-1.6s-1.51.52-1.51,1.6v.93Z" transform="translate(-347.99 -32.32)"/><path class="cls-5" d="M656,220.82a4.17,4.17,0,0,1-.23-1.67,2.81,2.81,0,0,1-2.77,1.9c-1.85,0-2.91-1.15-2.91-3.59v-4.75c0-2.41,1.06-3.56,2.91-3.56a2.81,2.81,0,0,1,2.48,1.3V205H658v12.45a13.16,13.16,0,0,0,.31,3.33Zm-.52-4.1v-3.25c0-1.48-.61-2.16-1.58-2.16s-1.33.59-1.33,1.71v4.15c0,1.1.36,1.71,1.33,1.71S655.48,218.21,655.48,216.72Z" transform="translate(-347.99 -32.32)"/></g><g id="ANIMATED"><path class="cls-6" d="M430.44,85.57H363.87A15.88,15.88,0,0,0,348,101.45h0a15.88,15.88,0,0,0,15.88,15.88h54.52l12.05,12.18V117.33a15.88,15.88,0,0,0,15.88-15.88h0A15.88,15.88,0,0,0,430.44,85.57Z" transform="translate(-347.99 -32.32)"/><path class="cls-5" d="M366.07,108a5.66,5.66,0,0,1-.21-1.69,2.78,2.78,0,0,1-2.81,1.92,2.7,2.7,0,0,1-2.84-3c0-1.75.76-2.88,3.08-3.69,2-.7,2.3-.95,2.3-1.65v-.11c0-1-.4-1.42-1.28-1.42s-1.4.56-1.4,1.53v.2h-2.3V100a3.35,3.35,0,0,1,3.72-3.67c2.68,0,3.72,1.39,3.72,4v4.34a13.47,13.47,0,0,0,.29,3.34Zm-.48-4.06v-1.55a5,5,0,0,1-1.55.81c-1,.41-1.38,1-1.38,1.69a1.12,1.12,0,0,0,1.24,1.26C364.89,106.14,365.59,105.44,365.59,103.93Z" transform="translate(-347.99 -32.32)"/><path class="cls-5" d="M378,99.88V108h-2.45v-7.75c0-1.22-.39-1.76-1.31-1.76s-1.56.65-1.56,2.16V108h-2.47V96.54h2.16l0,1.69a2.77,2.77,0,0,1,2.75-1.91C377,96.32,378,97.47,378,99.88Z" transform="translate(-347.99 -32.32)"/><path class="cls-5" d="M380.13,96.54h2.48V108h-2.48Zm0-4.3h2.48V95h-2.48Z" transform="translate(-347.99 -32.32)"/><path class="cls-5" d="M397.78,99.85V108H395.3v-7.82c0-1-.27-1.69-1.26-1.69s-1.49.68-1.49,2.16V108h-2.48v-7.82c0-1.06-.29-1.69-1.24-1.69s-1.53.68-1.53,2.16V108h-2.48V96.54H387l.05,1.71a2.71,2.71,0,0,1,2.7-1.93,2.48,2.48,0,0,1,2.59,1.78,2.72,2.72,0,0,1,2.64-1.78C396.74,96.32,397.78,97.47,397.78,99.85Z" transform="translate(-347.99 -32.32)"/><path class="cls-5" d="M405.24,108a5.46,5.46,0,0,1-.2-1.69,2.8,2.8,0,0,1-2.82,1.92,2.7,2.7,0,0,1-2.84-3c0-1.75.77-2.88,3.09-3.69,2-.7,2.3-.95,2.3-1.65v-.11c0-1-.4-1.42-1.28-1.42s-1.4.56-1.4,1.53v.2h-2.3V100a3.35,3.35,0,0,1,3.72-3.67c2.68,0,3.72,1.39,3.72,4v4.34a13.47,13.47,0,0,0,.29,3.34Zm-.47-4.06v-1.55a5.13,5.13,0,0,1-1.55.81c-1,.41-1.38,1-1.38,1.69a1.12,1.12,0,0,0,1.24,1.26C404.07,106.14,404.77,105.44,404.77,103.93Z" transform="translate(-347.99 -32.32)"/><path class="cls-5" d="M412.57,98.59v6.2c0,.88.32,1.24,1.13,1.24a2.83,2.83,0,0,0,1-.18V108a3.53,3.53,0,0,1-1.47.27c-2.09,0-3.09-1-3.09-3.11V98.59h-1.53v-2h1.62l.21-3.06h2.16v3.06h2.1v2Z" transform="translate(-347.99 -32.32)"/><path class="cls-5" d="M424,100.28v2.53h-5.43v1.69c0,1.08.52,1.6,1.54,1.6s1.53-.52,1.53-1.63v-.22H424v.11c0,2.41-1.42,3.86-3.94,3.86a3.59,3.59,0,0,1-4-4v-4c0-2.54,1.4-4,4-4S424,97.74,424,100.28Zm-2.41.66V100c0-1.08-.54-1.6-1.51-1.6s-1.51.52-1.51,1.6v.93Z" transform="translate(-347.99 -32.32)"/><path class="cls-5" d="M431.6,108a4.21,4.21,0,0,1-.23-1.67,2.81,2.81,0,0,1-2.77,1.9c-1.85,0-2.91-1.15-2.91-3.59V99.88c0-2.41,1.06-3.56,2.91-3.56a2.81,2.81,0,0,1,2.48,1.3V92.21h2.48v12.44a13.2,13.2,0,0,0,.31,3.34Zm-.52-4.1v-3.25c0-1.48-.61-2.16-1.58-2.16s-1.33.59-1.33,1.71v4.15c0,1.1.36,1.71,1.33,1.71S431.08,105.38,431.08,103.89Z" transform="translate(-347.99 -32.32)"/></g><g id="DESIGNED"><path d="M602.71,64.86a4.21,4.21,0,0,1-.23-1.67,2.81,2.81,0,0,1-2.77,1.89c-1.85,0-2.91-1.15-2.91-3.58V56.74c0-2.41,1.06-3.56,2.91-3.56a2.82,2.82,0,0,1,2.48,1.31V49.08h2.48V61.52a13.26,13.26,0,0,0,.31,3.34Zm-.52-4.11V57.51c0-1.49-.61-2.16-1.58-2.16s-1.33.58-1.33,1.71v4.15c0,1.1.36,1.71,1.33,1.71S602.19,62.24,602.19,60.75Z" transform="translate(-347.99 -32.32)"/><path d="M614.54,57.15v2.52h-5.43v1.69c0,1.08.52,1.6,1.53,1.6s1.53-.52,1.53-1.62v-.22h2.37v.11c0,2.41-1.42,3.85-3.94,3.85s-4-1.44-4-4v-4c0-2.55,1.4-4,4-4S614.54,54.6,614.54,57.15Zm-2.41.65v-.92c0-1.08-.54-1.6-1.51-1.6s-1.51.52-1.51,1.6v.92Z" transform="translate(-347.99 -32.32)"/><path d="M616,61.59v-.36h2.37v.38A1.25,1.25,0,0,0,619.7,63a1.2,1.2,0,0,0,1.36-1.31c0-.92-.88-1.26-2-1.66-1.44-.54-2.95-1.29-2.95-3.54,0-2,1.24-3.34,3.58-3.34s3.61,1.26,3.61,3.34v.22H621v-.27a1.13,1.13,0,0,0-1.27-1.26,1.1,1.1,0,0,0-1.21,1.19c0,1,.88,1.31,2.07,1.76,1.44.54,3,1.24,3,3.43s-1.26,3.49-3.69,3.49S616,63.77,616,61.59Z" transform="translate(-347.99 -32.32)"/><path d="M625.2,53.41h2.48V64.86H625.2Zm0-4.31h2.48v2.75h-2.48Z" transform="translate(-347.99 -32.32)"/><path d="M637.49,53.41V64.79c0,2.3-.93,3.79-3.92,3.79-2.48,0-3.77-1.06-3.83-3.18h2.36c0,.81.47,1.15,1.42,1.15s1.51-.48,1.51-1.69V63a2.74,2.74,0,0,1-2.48,1.33c-1.85,0-2.9-1.15-2.9-3.56V56.74c0-2.41,1.05-3.56,2.9-3.56a2.76,2.76,0,0,1,2.75,1.92l.07-1.69ZM635,60.06V57.51c0-1.49-.61-2.16-1.6-2.16s-1.33.58-1.33,1.71v3.45c0,1.12.36,1.71,1.33,1.71S635,61.54,635,60.06Z" transform="translate(-347.99 -32.32)"/><path d="M647.5,56.74v8.12H645V57.1c0-1.21-.38-1.75-1.31-1.75s-1.55.65-1.55,2.16v7.35H639.7V53.41h2.16l0,1.69a2.78,2.78,0,0,1,2.75-1.92C646.48,53.18,647.5,54.33,647.5,56.74Z" transform="translate(-347.99 -32.32)"/><path d="M657.26,57.15v2.52h-5.43v1.69c0,1.08.51,1.6,1.53,1.6s1.53-.52,1.53-1.62v-.22h2.37v.11c0,2.41-1.42,3.85-4,3.85s-4-1.44-4-4v-4c0-2.55,1.39-4,4-4S657.26,54.6,657.26,57.15Zm-2.41.65v-.92c0-1.08-.55-1.6-1.51-1.6s-1.51.52-1.51,1.6v.92Z" transform="translate(-347.99 -32.32)"/><path d="M664.9,64.86a4.66,4.66,0,0,1-.23-1.67,2.81,2.81,0,0,1-2.77,1.89c-1.85,0-2.91-1.15-2.91-3.58V56.74c0-2.41,1.06-3.56,2.91-3.56a2.82,2.82,0,0,1,2.48,1.31V49.08h2.48V61.52a13.13,13.13,0,0,0,.32,3.34Zm-.52-4.11V57.51c0-1.49-.61-2.16-1.58-2.16s-1.33.58-1.33,1.71v4.15c0,1.1.36,1.71,1.33,1.71S664.38,62.24,664.38,60.75Z" transform="translate(-347.99 -32.32)"/><path class="cls-2" d="M600.14,84.61a.43.43,0,0,1-.19,0,.5.5,0,0,1-.31-.46V73a15.57,15.57,0,0,1,.5-31.14h63.2a15.58,15.58,0,0,1,0,31.15H611.79L600.5,84.46A.51.51,0,0,1,600.14,84.61Zm0-41.71a14.58,14.58,0,0,0,0,29.15.5.5,0,0,1,.5.5V82.9l10.58-10.7a.51.51,0,0,1,.36-.15h51.76a14.58,14.58,0,0,0,0-29.15Z" transform="translate(-347.99 -32.32)"/></g><g id="BLOGGED"><path class="cls-3" d="M901.74,32.32H838.26a15.14,15.14,0,1,0,0,30.28H888V76.1l10.4-13.5h3.35a15.14,15.14,0,0,0,0-30.28Z" transform="translate(-347.99 -32.32)"/><path class="cls-5" d="M847.46,46.1v4.75c0,2.44-1,3.58-2.89,3.58a2.81,2.81,0,0,1-2.79-2l-.39,1.78h-1.8V38.43h2.48v5.46a2.81,2.81,0,0,1,2.5-1.36C846.42,42.53,847.46,43.68,847.46,46.1Zm-2.48.31c0-1.13-.34-1.71-1.31-1.71s-1.6.67-1.6,2.16v3.25c0,1.48.63,2.16,1.6,2.16s1.31-.61,1.31-1.71Z" transform="translate(-347.99 -32.32)"/><path class="cls-5" d="M849.46,38.43h2.48V54.21h-2.48Z" transform="translate(-347.99 -32.32)"/><path class="cls-5" d="M853.88,50.47v-4c0-2.55,1.42-4,3.92-4s4,1.42,4,4v4a3.59,3.59,0,0,1-4,4C855.3,54.43,853.88,53,853.88,50.47Zm5.39.2V46.3c0-1-.45-1.6-1.47-1.6s-1.44.63-1.44,1.6v4.37c0,1,.45,1.6,1.44,1.6S859.27,51.64,859.27,50.67Z" transform="translate(-347.99 -32.32)"/><path class="cls-5" d="M871.28,42.76V54.14c0,2.3-.92,3.79-3.92,3.79q-3.72,0-3.83-3.18h2.37c0,.81.47,1.15,1.42,1.15s1.51-.47,1.51-1.69V52.38a2.75,2.75,0,0,1-2.48,1.33c-1.85,0-2.91-1.15-2.91-3.56v-4c0-2.42,1.06-3.57,2.91-3.57a2.76,2.76,0,0,1,2.75,1.92l.07-1.69Zm-2.45,6.65V46.86c0-1.49-.61-2.16-1.6-2.16s-1.33.58-1.33,1.71v3.45c0,1.13.36,1.71,1.33,1.71S868.83,50.9,868.83,49.41Z" transform="translate(-347.99 -32.32)"/><path class="cls-5" d="M881.09,42.76V54.14c0,2.3-.92,3.79-3.92,3.79-2.48,0-3.77-1.06-3.83-3.18h2.36c0,.81.48,1.15,1.42,1.15s1.51-.47,1.51-1.69V52.38a2.73,2.73,0,0,1-2.48,1.33c-1.84,0-2.9-1.15-2.9-3.56v-4c0-2.42,1.06-3.57,2.9-3.57a2.75,2.75,0,0,1,2.75,1.92l.07-1.69Zm-2.46,6.65V46.86c0-1.49-.61-2.16-1.6-2.16s-1.33.58-1.33,1.71v3.45c0,1.13.36,1.71,1.33,1.71S878.63,50.9,878.63,49.41Z" transform="translate(-347.99 -32.32)"/><path class="cls-5" d="M890.94,46.5V49h-5.43v1.69c0,1.08.52,1.6,1.53,1.6s1.53-.52,1.53-1.63v-.22h2.37v.11c0,2.41-1.42,3.85-3.94,3.85s-4-1.44-4-4v-4c0-2.55,1.4-4,4-4S890.94,44,890.94,46.5Zm-2.41.65v-.92c0-1.08-.54-1.6-1.51-1.6s-1.51.52-1.51,1.6v.92Z" transform="translate(-347.99 -32.32)"/><path class="cls-5" d="M898.58,54.21a4.51,4.51,0,0,1-.22-1.67,2.8,2.8,0,0,1-2.78,1.89c-1.84,0-2.9-1.14-2.9-3.58V46.1c0-2.42,1.06-3.57,2.9-3.57a2.8,2.8,0,0,1,2.48,1.31V38.43h2.48V50.87a13.07,13.07,0,0,0,.32,3.34Zm-.52-4.1V46.86c0-1.49-.6-2.16-1.57-2.16s-1.33.58-1.33,1.71v4.15c0,1.1.36,1.71,1.33,1.71S898.06,51.59,898.06,50.11Z" transform="translate(-347.99 -32.32)"/></g><g id="DIRECTED"><path class="cls-7" d="M1008.87,63.57h66.57a15.88,15.88,0,0,1,15.88,15.88h0a15.88,15.88,0,0,1-15.88,15.88h-54.52l-12,12.18V95.33A15.88,15.88,0,0,1,993,79.45h0A15.88,15.88,0,0,1,1008.87,63.57Z" transform="translate(-347.99 -32.32)"/><path class="cls-1" d="M1016,86a4.4,4.4,0,0,1-.22-1.66,2.82,2.82,0,0,1-2.78,1.89c-1.84,0-2.9-1.15-2.9-3.58V77.91c0-2.41,1.06-3.56,2.9-3.56a2.79,2.79,0,0,1,2.48,1.31V70.25h2.48V82.69a13,13,0,0,0,.32,3.33Zm-.52-4.1V78.68c0-1.49-.61-2.17-1.57-2.17s-1.33.59-1.33,1.72v4.14c0,1.11.36,1.72,1.33,1.72S1015.44,83.41,1015.44,81.92Z" transform="translate(-347.99 -32.32)"/><path class="cls-1" d="M1020.16,74.57h2.47V86h-2.47Zm0-4.3h2.48V73h-2.48Z" transform="translate(-347.99 -32.32)"/><path class="cls-1" d="M1030.39,74.48v2.39a3.73,3.73,0,0,0-.7-.06c-1.56,0-2.37,1-2.37,3V86h-2.48V74.57H1027l0,2.12c.38-1.57,1.26-2.34,2.59-2.34A1.75,1.75,0,0,1,1030.39,74.48Z" transform="translate(-347.99 -32.32)"/><path class="cls-1" d="M1039.43,78.32v2.52H1034v1.69c0,1.08.51,1.6,1.53,1.6s1.53-.52,1.53-1.62v-.23h2.37v.12c0,2.41-1.42,3.85-4,3.85s-4-1.44-4-4v-4c0-2.55,1.39-4,4-4S1039.43,75.77,1039.43,78.32ZM1037,79v-.92c0-1.09-.55-1.6-1.52-1.6s-1.5.51-1.5,1.6V79Z" transform="translate(-347.99 -32.32)"/><path class="cls-1" d="M1041.1,82.3v-4c0-2.52,1.39-3.94,3.92-3.94s3.81,1.53,3.81,3.92v.47h-2.39v-.65c0-1-.43-1.58-1.42-1.58s-1.44.57-1.44,1.58v4.42c0,1,.45,1.58,1.44,1.58s1.42-.59,1.42-1.58v-.9h2.39v.69c0,2.42-1.24,4-3.81,4S1041.1,84.83,1041.1,82.3Z" transform="translate(-347.99 -32.32)"/><path class="cls-1" d="M1053.9,76.63v6.19c0,.88.32,1.24,1.13,1.24a2.61,2.61,0,0,0,1-.18V86a3.56,3.56,0,0,1-1.47.27c-2.1,0-3.09-1-3.09-3.11V76.63h-1.53V74.57h1.62l.21-3.06h2.16v3.06h2.1v2.06Z" transform="translate(-347.99 -32.32)"/><path class="cls-1" d="M1065.28,78.32v2.52h-5.43v1.69c0,1.08.52,1.6,1.53,1.6s1.54-.52,1.54-1.62v-.23h2.36v.12c0,2.41-1.42,3.85-3.94,3.85s-4-1.44-4-4v-4c0-2.55,1.4-4,4-4S1065.28,75.77,1065.28,78.32Zm-2.41.65v-.92c0-1.09-.54-1.6-1.51-1.6s-1.51.51-1.51,1.6V79Z" transform="translate(-347.99 -32.32)"/><path class="cls-1" d="M1072.93,86a4.11,4.11,0,0,1-.23-1.66,2.81,2.81,0,0,1-2.77,1.89c-1.85,0-2.91-1.15-2.91-3.58V77.91c0-2.41,1.06-3.56,2.91-3.56a2.8,2.8,0,0,1,2.48,1.31V70.25h2.48V82.69a13.16,13.16,0,0,0,.31,3.33Zm-.52-4.1V78.68c0-1.49-.61-2.17-1.58-2.17s-1.33.59-1.33,1.72v4.14c0,1.11.36,1.72,1.33,1.72S1072.41,83.41,1072.41,81.92Z" transform="translate(-347.99 -32.32)"/></g></svg>