<svg xmlns="http://www.w3.org/2000/svg" viewBox="0 0 1440 900"><defs><style>.cls-1{font-size:188.48px;}.cls-1,.cls-14,.cls-19,.cls-4,.cls-6,.cls-8{font-family:BebasNeuePro-SmEBd, Bebas Neue Pro;}.cls-19,.cls-2{fill:#fddf01;}.cls-3,.cls-6{fill:#231f20;}.cls-4,.cls-6{font-size:27.93px;}.cls-17,.cls-4{fill:#fc198e;}.cls-5{letter-spacing:0em;}.cls-7{fill:#fd6519;}.cls-14,.cls-19,.cls-8{font-size:22.54px;}.cls-8{fill:#fff;}.cls-9{letter-spacing:-0.01em;}.cls-10{letter-spacing:0em;}.cls-11{fill:#ba0dfe;}.cls-12{letter-spacing:0em;}.cls-13{letter-spacing:0em;}.cls-15{letter-spacing:0em;}.cls-16{fill:none;stroke:#231f20;stroke-linecap:round;stroke-linejoin:round;}.cls-18{fill:#124ab0;}.cls-20{letter-spacing:0em;}.cls-21{letter-spacing:0em;}</style></defs><g id="main_text" data-name="main text"><text class="cls-1" transform="translate(459.83 490.72)">iannjoel</text><rect class="cls-2" x="845.55" y="459.88" width="158.53" height="36.69" rx="18.35" transform="translate(-65.07 155.58) rotate(-9.29)"/><path class="cls-3" d="M864.69,508a20,20,0,0,1-3.22-39.67l120.24-19.68a20,20,0,0,1,6.45,39.42L867.92,507.77A20.88,20.88,0,0,1,864.69,508Zm120.25-56.37a16.59,16.59,0,0,0-2.7.23L862,471.56a16.72,16.72,0,1,0,5.4,33L987.64,484.9a16.73,16.73,0,0,0-2.7-33.24Z"/><text class="cls-4" transform="translate(874.41 495.83) rotate(-9.29)"><tspan class="cls-5">b</tspan><tspan x="12.12" y="0">y iannjoel</tspan></text><text class="cls-6" transform="translate(874.41 495.83) rotate(-9.29)"><tspan class="cls-5">b</tspan><tspan x="12.12" y="0">y iannjoel</tspan></text></g><g id="BRANDED"><path d="M657,529.92H593.48a15.14,15.14,0,0,1,0-30.28H643.2v-13.5l10.41,13.5H657a15.14,15.14,0,0,1,0,30.28Z"/><path class="cls-7" d="M657,529.92H593.48a15.14,15.14,0,0,1,0-30.28H643.2v-13.5l10.41,13.5H657a15.14,15.14,0,0,1,0,30.28Z"/><text class="cls-8" transform="translate(593.56 521.82)">b<tspan class="cls-9" x="9.87" y="0">r</tspan><tspan x="16.75" y="0">and</tspan><tspan class="cls-10" x="46.05" y="0">e</tspan><tspan x="55.63" y="0">d</tspan></text></g><g id="ANIMATED"><path class="cls-11" d="M430.44,386.57H363.87A15.88,15.88,0,0,0,348,402.45h0a15.88,15.88,0,0,0,15.88,15.88h54.52l12.05,12.18V418.33a15.88,15.88,0,0,0,15.88-15.88h0A15.88,15.88,0,0,0,430.44,386.57Z"/><text class="cls-8" transform="translate(359.62 408.99)">anim<tspan class="cls-12" x="39.18" y="0">a</tspan><tspan class="cls-13" x="48.56" y="0">t</tspan><tspan class="cls-10" x="55.59" y="0">e</tspan><tspan x="65.17" y="0">d</tspan></text></g><g id="DESIGNED"><text class="cls-14" transform="translate(595.9 365.86)">design<tspan class="cls-15" x="52.61" y="0">e</tspan><tspan x="62.19" y="0">d</tspan></text><path class="cls-16" d="M600.14,343.4h63.2a15.08,15.08,0,0,1,15.07,15.08h0a15.07,15.07,0,0,1-15.07,15.07H611.58l-11.44,11.56V373.55a15.07,15.07,0,0,1-15.07-15.07h0A15.08,15.08,0,0,1,600.14,343.4Z"/></g><g id="BLOGGED"><path class="cls-17" d="M901.74,333.32H838.26a15.14,15.14,0,1,0,0,30.28H888v13.5l10.4-13.5h3.35a15.14,15.14,0,0,0,0-30.28Z"/><text class="cls-8" transform="translate(838.49 355.21)">blogg<tspan class="cls-10" x="43.71" y="0">e</tspan><tspan x="53.29" y="0">d</tspan></text></g><g id="DIRECTED"><path class="cls-18" d="M1008.87,364.57h66.57a15.88,15.88,0,0,1,15.88,15.88h0a15.88,15.88,0,0,1-15.88,15.88h-54.52l-12,12.18V396.33A15.88,15.88,0,0,1,993,380.45h0A15.88,15.88,0,0,1,1008.87,364.57Z"/><text class="cls-19" transform="translate(1009.15 387.02)">di<tspan class="cls-20" x="14.58" y="0">r</tspan><tspan class="cls-10" x="21.53" y="0">e</tspan><tspan x="31.11" y="0">c</tspan><tspan class="cls-13" x="40.35" y="0">t</tspan><tspan class="cls-10" x="47.38" y="0">e</tspan><tspan class="cls-21" x="56.96" y="0">d</tspan></text></g></svg>