<svg id="Layer_1" data-name="Layer 1" xmlns="http://www.w3.org/2000/svg" viewBox="0 0 102.7 31.25"><defs><style>.cls-1{fill:#fddf01;}.cls-2{fill:#231f20;}</style></defs><path d="M1,6.94h4V25.29H1ZM1,0H5v4.4H1Z" transform="translate(-0.95)"/><path d="M17,25.29a8.83,8.83,0,0,1-.32-2.71,4.48,4.48,0,0,1-4.52,3.07c-2.78,0-4.55-1.81-4.55-4.73s1.23-4.63,5-5.93c3.21-1.12,3.68-1.52,3.68-2.64v-.18c0-1.55-.65-2.27-2.06-2.27S12,10.8,12,12.35v.33H8.28v-.22c0-3.72,2.1-5.89,6-5.89,4.3,0,6,2.24,6,6.4v7a21.49,21.49,0,0,0,.47,5.35Zm-.76-6.51V16.29a7.91,7.91,0,0,1-2.49,1.3c-1.59.65-2.2,1.52-2.2,2.71a1.78,1.78,0,0,0,2,2C15.14,22.32,16.26,21.2,16.26,18.78Z" transform="translate(-0.95)"/><path d="M36.17,12.28v13H32.23V12.86c0-1.95-.61-2.82-2.09-2.82s-2.5,1.05-2.5,3.47V25.29h-4V6.94h3.47l0,2.71a4.46,4.46,0,0,1,4.41-3.08C34.54,6.57,36.17,8.42,36.17,12.28Z" transform="translate(-0.95)"/><path d="M52.06,12.28v13H48.12V12.86c0-1.95-.61-2.82-2.09-2.82s-2.49,1.05-2.49,3.47V25.29h-4V6.94H43l0,2.71a4.44,4.44,0,0,1,4.4-3.08C50.44,6.57,52.06,8.42,52.06,12.28Z" transform="translate(-0.95)"/><path d="M53,30.85V27.56a3.62,3.62,0,0,0,1.3.22c.79,0,1.12-.36,1.12-1.23V6.94h4v19.9c0,3-1.41,4.41-4.26,4.41A4.94,4.94,0,0,1,53,30.85ZM55.49,0h4v4.4h-4Z" transform="translate(-0.95)"/><path d="M62.54,19.29V12.93c0-4.08,2.27-6.36,6.28-6.36s6.32,2.28,6.32,6.36v6.36c0,4.05-2.27,6.36-6.32,6.36S62.54,23.34,62.54,19.29Zm8.63.33v-7c0-1.56-.72-2.57-2.35-2.57s-2.31,1-2.31,2.57v7c0,1.55.72,2.56,2.31,2.56S71.17,21.17,71.17,19.62Z" transform="translate(-0.95)"/><path d="M90.5,12.93V17H81.79v2.71c0,1.73.83,2.56,2.46,2.56s2.45-.83,2.45-2.6v-.36h3.8v.18c0,3.87-2.28,6.18-6.33,6.18s-6.35-2.31-6.35-6.36V12.93c0-4.08,2.24-6.36,6.35-6.36S90.5,8.85,90.5,12.93ZM86.63,14V12.5c0-1.73-.87-2.57-2.42-2.57s-2.42.84-2.42,2.57V14Z" transform="translate(-0.95)"/><path d="M93.53,0h4V25.29h-4Z" transform="translate(-0.95)"/><path d="M80.3,23.94l.18,1.1c.09.56-.1.87-.53.94a.67.67,0,0,1-.72-.36l0,.42-.42.07-.6-3.64.58-.1.2,1.26a.68.68,0,0,1,.53-.4C79.93,23.16,80.21,23.38,80.3,23.94Zm-.56.17c0-.26-.14-.39-.37-.35s-.34.22-.28.56l.12.75c.06.35.23.48.45.44s.28-.19.24-.44Z" transform="translate(-0.95)"/><path d="M82.42,22.8l-.23,3a.73.73,0,0,1-.69.76.82.82,0,0,1-.35,0l-.08-.49a.62.62,0,0,0,.27,0,.29.29,0,0,0,.29-.29v-.05l-1.18-2.59L81,23l.74,1.76.09-1.9Z" transform="translate(-0.95)"/><path d="M83.49,21.61l.57-.1.11.64-.57.09Zm.16,1,.57-.09.44,2.64-.58.1Z" transform="translate(-0.95)"/><path d="M86.4,24.87a1.26,1.26,0,0,1-.11-.38.64.64,0,0,1-.58.54.63.63,0,0,1-.77-.57c-.06-.41.07-.7.58-1S86,23.18,86,23v0c0-.23-.15-.32-.35-.28s-.3.18-.26.4v.05l-.53.09v0a.78.78,0,0,1,.72-1c.62-.1.91.18,1,.78l.16,1a2.78,2.78,0,0,0,.2.76ZM86.14,24l-.06-.36a1.17,1.17,0,0,1-.33.25c-.21.13-.28.27-.25.44a.26.26,0,0,0,.33.24C86.06,24.49,86.19,24.3,86.14,24Z" transform="translate(-0.95)"/><path d="M88.85,22.54l.31,1.88-.57.09-.29-1.79c0-.28-.16-.39-.37-.36s-.33.21-.28.56l.28,1.7-.57.09-.43-2.64.5-.09.06.39a.66.66,0,0,1,.57-.54C88.48,21.76,88.76,22,88.85,22.54Z" transform="translate(-0.95)"/><path d="M91.14,22.17,91.45,24l-.57.1-.29-1.8c0-.28-.15-.39-.37-.35s-.33.21-.28.56l.28,1.69-.57.1-.43-2.65.5-.08.07.39a.64.64,0,0,1,.56-.55C90.78,21.38,91.05,21.61,91.14,22.17Z" transform="translate(-0.95)"/><path d="M91.35,20.32l.57-.09.11.63-.58.1Zm.37,4.5-.07-.47h.19c.11,0,.15-.08.13-.21l-.46-2.82.57-.1.47,2.87a.56.56,0,0,1-.51.74A.69.69,0,0,1,91.72,24.82Z" transform="translate(-0.95)"/><path d="M92.82,22.93,92.67,22a.92.92,0,1,1,1.82-.29l.15.91a.92.92,0,1,1-1.82.3Zm1.25-.16-.16-1c0-.22-.17-.35-.4-.31s-.31.2-.27.42l.16,1c0,.23.17.36.39.32S94.11,23,94.07,22.77Z" transform="translate(-0.95)"/><path d="M96.7,21.35l.1.59-1.26.2.07.39a.33.33,0,0,0,.41.32c.23,0,.33-.18.29-.44v-.05l.55-.09v0a.83.83,0,0,1-.76,1A.85.85,0,0,1,95,22.57l-.15-.92a.93.93,0,0,1,1.83-.3Zm-.53.25,0-.22c0-.25-.18-.35-.41-.31a.32.32,0,0,0-.28.43l0,.21Z" transform="translate(-0.95)"/><path d="M96.83,19.42l.58-.09L98,23l-.57.09Z" transform="translate(-0.95)"/><rect class="cls-1" x="73.1" y="19.38" width="30.38" height="7.03" rx="3.52" transform="translate(-3.48 14.56) rotate(-9.29)"/><path class="cls-2" d="M76.77,28.6a3.82,3.82,0,0,1-.61-7.6l23-3.77a3.83,3.83,0,1,1,1.24,7.55l-23,3.77A3.24,3.24,0,0,1,76.77,28.6Zm23-10.8a3.12,3.12,0,0,0-.52,0l-23,3.77a3.21,3.21,0,0,0,1,6.33l23-3.77a3.21,3.21,0,0,0-.52-6.37Z" transform="translate(-0.95)"/><path d="M80.43,24l.18,1.11c.09.58-.1.88-.54,1a.67.67,0,0,1-.73-.37l0,.43-.42.07-.61-3.7.58-.09.21,1.28a.67.67,0,0,1,.54-.41C80.05,23.22,80.34,23.45,80.43,24Zm-.57.17c0-.27-.15-.39-.37-.35s-.35.22-.29.57l.12.76c.06.35.23.48.46.44s.28-.19.24-.45Z" transform="translate(-0.95)"/><path d="M82.57,22.87l-.22,3a.75.75,0,0,1-.7.78.86.86,0,0,1-.36,0l-.08-.49a.66.66,0,0,0,.28,0,.28.28,0,0,0,.28-.29v-.05l-1.2-2.64.59-.1.76,1.8L82,23Z" transform="translate(-0.95)"/><path d="M83.66,21.65l.59-.09.1.64-.58.1Zm.16,1,.59-.09.44,2.68-.59.1Z" transform="translate(-0.95)"/><path d="M86.62,25a1.16,1.16,0,0,1-.12-.39.66.66,0,0,1-.58.56.64.64,0,0,1-.78-.58c-.07-.42.07-.71.58-1s.5-.31.47-.47v0c0-.23-.15-.32-.36-.28s-.3.18-.26.41v0l-.54.09v0a.79.79,0,0,1,.73-1c.63-.1.93.19,1,.79l.16,1a3.2,3.2,0,0,0,.2.77ZM86.35,24l-.06-.37a1.17,1.17,0,0,1-.33.25c-.22.14-.29.28-.26.45a.27.27,0,0,0,.34.25C86.27,24.57,86.41,24.38,86.35,24Z" transform="translate(-0.95)"/><path d="M89.1,22.6l.32,1.9-.58.1-.3-1.82c0-.29-.16-.4-.37-.36s-.34.21-.28.56l.28,1.73-.58.09-.44-2.68.51-.09.07.4a.64.64,0,0,1,.57-.55C88.73,21.8,89,22,89.1,22.6Z" transform="translate(-0.95)"/><path d="M91.43,22.22l.31,1.9-.58.1-.29-1.82c-.05-.29-.16-.4-.38-.36s-.34.21-.28.56l.28,1.73-.58.09-.44-2.68.51-.09.07.4a.68.68,0,0,1,.57-.56C91.05,21.42,91.34,21.65,91.43,22.22Z" transform="translate(-0.95)"/><path d="M91.64,20.35l.58-.1.1.65-.58.09ZM92,24.91l-.08-.48a.6.6,0,0,0,.19,0c.12,0,.16-.08.14-.2l-.47-2.87.58-.1.47,2.91a.56.56,0,0,1-.51.75A.68.68,0,0,1,92,24.91Z" transform="translate(-0.95)"/><path d="M93.13,23,93,22.06a.93.93,0,1,1,1.84-.3l.15.93a.93.93,0,1,1-1.84.3Zm1.27-.15-.17-1c0-.23-.17-.36-.4-.32s-.32.2-.28.43l.17,1a.32.32,0,0,0,.4.32A.33.33,0,0,0,94.4,22.84Z" transform="translate(-0.95)"/><path d="M97.07,21.4l.09.59-1.27.21.06.39c0,.26.19.36.42.32s.34-.18.3-.44v0l.56-.09v0a.85.85,0,0,1-.77,1.06.86.86,0,0,1-1.09-.78l-.15-.93a.94.94,0,1,1,1.86-.3Zm-.54.24,0-.22a.36.36,0,1,0-.71.12l0,.22Z" transform="translate(-0.95)"/><path d="M97.2,19.43l.58-.09L98.39,23l-.58.1Z" transform="translate(-0.95)"/></svg>