<svg id="Layer_1" data-name="Layer 1" xmlns="http://www.w3.org/2000/svg" viewBox="0 0 102.7 31.25"><defs><style>.cls-1{fill:#fff;}.cls-2{fill:#010101;}.cls-3{fill:#fcdf00;}.cls-4{fill:#231f20;}</style></defs><path class="cls-1" d="M.2,7h4V25.3H.2Zm0-6.9h4V4.46h-4Z" transform="translate(-0.2 -0.02)"/><path class="cls-1" d="M16.27,25.3A8.68,8.68,0,0,1,16,22.6a4.48,4.48,0,0,1-4.52,3.07c-2.78,0-4.55-1.81-4.55-4.74s1.23-4.62,5-5.92c3.21-1.12,3.68-1.52,3.68-2.64v-.18c0-1.55-.65-2.27-2.06-2.27s-2.24.9-2.24,2.45v.33H7.53v-.22c0-3.72,2.09-5.89,6-5.89,4.3,0,6,2.24,6,6.4v7a21.33,21.33,0,0,0,.47,5.34Zm-.76-6.5V16.31A8,8,0,0,1,13,17.61c-1.59.65-2.2,1.52-2.2,2.71a1.78,1.78,0,0,0,2,2C14.39,22.34,15.51,21.22,15.51,18.8Z" transform="translate(-0.2 -0.02)"/><path class="cls-1" d="M35.42,12.3v13H31.48V12.88c0-2-.62-2.82-2.1-2.82s-2.49,1-2.49,3.47V25.3h-4V7h3.46l0,2.71a4.45,4.45,0,0,1,4.41-3.07C33.79,6.59,35.42,8.43,35.42,12.3Z" transform="translate(-0.2 -0.02)"/><path class="cls-1" d="M51.31,12.3v13H47.37V12.88c0-2-.61-2.82-2.09-2.82s-2.5,1-2.5,3.47V25.3h-4V7h3.47l0,2.71a4.46,4.46,0,0,1,4.41-3.07C49.68,6.59,51.31,8.43,51.31,12.3Z" transform="translate(-0.2 -0.02)"/><path class="cls-1" d="M52.28,30.87V27.58a3.71,3.71,0,0,0,1.31.22c.79,0,1.11-.36,1.11-1.23V7h4V26.86c0,3-1.41,4.41-4.26,4.41A5,5,0,0,1,52.28,30.87ZM54.74.05h4V4.46h-4Z" transform="translate(-0.2 -0.02)"/><path class="cls-1" d="M61.78,19.31V13c0-4.08,2.28-6.36,6.29-6.36S74.39,8.87,74.39,13v6.36c0,4-2.27,6.36-6.32,6.36S61.78,23.35,61.78,19.31Zm8.64.32v-7c0-1.56-.72-2.57-2.35-2.57s-2.31,1-2.31,2.57v7c0,1.56.72,2.57,2.31,2.57S70.42,21.19,70.42,19.63Z" transform="translate(-0.2 -0.02)"/><path class="cls-1" d="M89.74,13V17H81v2.71c0,1.73.83,2.56,2.46,2.56S86,21.44,86,19.67v-.36h3.79v.18c0,3.86-2.27,6.18-6.32,6.18s-6.36-2.32-6.36-6.36V13c0-4.08,2.24-6.36,6.36-6.36S89.74,8.87,89.74,13ZM85.88,14V12.52c0-1.74-.87-2.57-2.42-2.57S81,10.78,81,12.52V14Z" transform="translate(-0.2 -0.02)"/><path class="cls-1" d="M92.78,0h4V25.3h-4Z" transform="translate(-0.2 -0.02)"/><path class="cls-2" d="M79.55,24l.18,1.1c.09.56-.1.86-.53.93a.65.65,0,0,1-.72-.35l0,.42-.42.07-.6-3.64.58-.1.2,1.26a.64.64,0,0,1,.53-.4C79.18,23.18,79.46,23.4,79.55,24Zm-.56.17c0-.26-.14-.39-.37-.35s-.34.22-.29.56l.13.75c.05.34.22.48.45.44s.28-.19.24-.45Z" transform="translate(-0.2 -0.02)"/><path class="cls-2" d="M81.66,22.82l-.22,3a.73.73,0,0,1-.69.77.82.82,0,0,1-.35,0l-.08-.48a.61.61,0,0,0,.27,0,.3.3,0,0,0,.29-.29v-.05l-1.18-2.6.58-.09L81,24.81l.09-1.9Z" transform="translate(-0.2 -0.02)"/><path class="cls-2" d="M82.74,21.62l.57-.09.11.64-.58.09Zm.16,1,.57-.09.43,2.64-.57.1Z" transform="translate(-0.2 -0.02)"/><path class="cls-2" d="M85.65,24.89a1.26,1.26,0,0,1-.11-.39.65.65,0,0,1-.58.55.63.63,0,0,1-.77-.57c-.07-.41.07-.7.57-1s.5-.31.47-.47v0c0-.22-.15-.31-.35-.28s-.3.19-.27.41v.05l-.53.09v0a.79.79,0,0,1,.72-1c.62-.1.91.19,1,.79L86,24a3.35,3.35,0,0,0,.19.76ZM85.38,24l0-.36a1.45,1.45,0,0,1-.33.24.43.43,0,0,0-.26.45.27.27,0,0,0,.34.24C85.31,24.5,85.44,24.32,85.38,24Z" transform="translate(-0.2 -0.02)"/><path class="cls-2" d="M88.1,22.56l.31,1.87-.57.1-.29-1.79c0-.28-.16-.4-.37-.36s-.34.21-.28.56l.28,1.7-.57.09-.44-2.65.5-.08.07.39a.65.65,0,0,1,.57-.54C87.73,21.78,88,22,88.1,22.56Z" transform="translate(-0.2 -0.02)"/><path class="cls-2" d="M90.39,22.19l.31,1.87-.57.09-.29-1.79c0-.28-.16-.39-.37-.36s-.33.21-.28.56l.28,1.7-.57.09-.44-2.64.5-.08L89,22a.66.66,0,0,1,.57-.55C90,21.4,90.3,21.63,90.39,22.19Z" transform="translate(-0.2 -0.02)"/><path class="cls-2" d="M90.6,20.34l.57-.09.11.63L90.7,21Zm.37,4.5-.08-.48a.44.44,0,0,0,.2,0c.11,0,.15-.08.13-.21l-.46-2.83.57-.09.47,2.87a.56.56,0,0,1-.51.74A.85.85,0,0,1,91,24.84Z" transform="translate(-0.2 -0.02)"/><path class="cls-2" d="M92.07,23,91.92,22A.83.83,0,0,1,92.67,21a.84.84,0,0,1,1.07.76l.15.92a.85.85,0,0,1-.77,1.07A.84.84,0,0,1,92.07,23Zm1.25-.16-.16-1c0-.22-.17-.35-.4-.31s-.31.2-.28.42l.17,1c0,.23.16.35.39.32S93.36,23,93.32,22.79Z" transform="translate(-0.2 -0.02)"/><path class="cls-2" d="M96,21.37,96,22l-1.25.2.06.39a.32.32,0,0,0,.42.31c.23,0,.33-.17.29-.43v-.05l.55-.09v0a.82.82,0,0,1-.76,1,.84.84,0,0,1-1.07-.76l-.15-.92a.93.93,0,0,1,1.83-.3Zm-.53.24,0-.21c0-.25-.18-.35-.41-.31a.33.33,0,0,0-.29.43l0,.21Z" transform="translate(-0.2 -0.02)"/><path class="cls-2" d="M96.08,19.44l.57-.1.6,3.65-.57.09Z" transform="translate(-0.2 -0.02)"/><rect class="cls-3" x="72.35" y="19.39" width="30.38" height="7.03" rx="3.52" transform="translate(-2.75 14.42) rotate(-9.29)"/><path class="cls-4" d="M76,28.62A3.83,3.83,0,0,1,75.4,21l23-3.77a3.83,3.83,0,0,1,1.24,7.55l-23,3.77A3.31,3.31,0,0,1,76,28.62Zm23-10.8a3,3,0,0,0-.52,0l-23,3.77a3.21,3.21,0,0,0,1,6.33l23-3.77a3.21,3.21,0,0,0-.51-6.37Z" transform="translate(-0.2 -0.02)"/><path class="cls-2" d="M79.68,24l.18,1.11c.09.57-.11.88-.54,1a.66.66,0,0,1-.73-.36l0,.43-.43.07-.6-3.7.58-.09.21,1.28a.68.68,0,0,1,.53-.42C79.3,23.24,79.58,23.47,79.68,24Zm-.57.17c0-.27-.15-.39-.37-.36s-.35.22-.3.57l.13.76c.05.35.23.49.46.45s.28-.19.24-.45Z" transform="translate(-0.2 -0.02)"/><path class="cls-2" d="M81.82,22.88l-.23,3a.75.75,0,0,1-.69.78.86.86,0,0,1-.36,0l-.08-.49a.61.61,0,0,0,.27,0,.3.3,0,0,0,.29-.3v0l-1.19-2.64.59-.1.76,1.79L81.27,23Z" transform="translate(-0.2 -0.02)"/><path class="cls-2" d="M82.91,21.67l.58-.1.11.65-.58.09Zm.16,1,.58-.1.44,2.69-.58.09Z" transform="translate(-0.2 -0.02)"/><path class="cls-2" d="M85.86,25a1.65,1.65,0,0,1-.11-.39.66.66,0,0,1-.59.56.65.65,0,0,1-.78-.59c-.06-.41.07-.7.59-1s.5-.31.47-.48v0c0-.23-.15-.32-.36-.29s-.3.19-.27.42v.05l-.54.08v0a.79.79,0,0,1,.73-1c.63-.11.92.18,1,.79l.17,1a2.89,2.89,0,0,0,.2.77Zm-.26-.93-.06-.37a1.11,1.11,0,0,1-.34.25.42.42,0,0,0-.25.45.26.26,0,0,0,.33.25C85.52,24.59,85.65,24.4,85.6,24.05Z" transform="translate(-0.2 -0.02)"/><path class="cls-2" d="M88.35,22.62l.31,1.9-.57.09-.3-1.81c-.05-.29-.16-.4-.37-.37s-.34.22-.29.57l.29,1.72-.58.1-.44-2.69.5-.08.07.4a.66.66,0,0,1,.57-.56C88,21.82,88.26,22.05,88.35,22.62Z" transform="translate(-0.2 -0.02)"/><path class="cls-2" d="M90.68,22.24l.31,1.9-.58.09-.3-1.81c0-.29-.15-.4-.37-.37s-.34.22-.28.57l.28,1.72-.58.1-.44-2.69.51-.08.07.4a.66.66,0,0,1,.57-.56C90.3,21.44,90.58,21.67,90.68,22.24Z" transform="translate(-0.2 -0.02)"/><path class="cls-2" d="M90.89,20.36l.58-.09.1.64L91,21Zm.37,4.57-.08-.48a.67.67,0,0,0,.2,0c.12,0,.16-.08.13-.21l-.46-2.87.58-.09.47,2.91a.57.57,0,0,1-.52.75A.69.69,0,0,1,91.26,24.93Z" transform="translate(-0.2 -0.02)"/><path class="cls-2" d="M92.38,23l-.16-.93a.94.94,0,1,1,1.85-.3l.15.93a.93.93,0,1,1-1.84.3Zm1.27-.16-.17-1c0-.23-.17-.36-.41-.32s-.31.2-.27.43L93,23c0,.23.16.36.4.32S93.68,23.08,93.65,22.85Z" transform="translate(-0.2 -0.02)"/><path class="cls-2" d="M96.31,21.41l.1.6-1.27.2.06.4a.33.33,0,0,0,.42.32c.24,0,.34-.18.3-.44v-.06l.56-.09v0a.84.84,0,0,1-.78,1.05.85.85,0,0,1-1.08-.77l-.15-.93a.94.94,0,1,1,1.85-.31Zm-.54.25,0-.22a.33.33,0,0,0-.42-.31c-.22,0-.33.17-.29.43l0,.21Z" transform="translate(-0.2 -0.02)"/><path class="cls-2" d="M96.45,19.45l.58-.1.6,3.7-.58.1Z" transform="translate(-0.2 -0.02)"/></svg>